<?xml version="1.0" encoding="utf-8"?>
<!-- Generator: Adobe Illustrator 23.0.0, SVG Export Plug-In . SVG Version: 6.00 Build 0)  -->
<svg version="1.1" id="图层_1" xmlns="http://www.w3.org/2000/svg" xmlns:xlink="http://www.w3.org/1999/xlink" x="0px" y="0px"
	 viewBox="0 0 100 100" style="enable-background:new 0 0 100 100;" xml:space="preserve">
<style type="text/css">
	.st0{fill:#EDF6FC;}
	.st1{fill:none;}
	.st2{fill:#0A7BE0;}
	.st3{fill:#FFFFFF;}
	.st4{fill:#53BAF9;}
	.st5{clip-path:url(#SVGID_2_);}
	.st6{fill:#C6E4F4;}
	.st7{fill:#414249;}
</style>
<g id="XMLID_153_">
	<circle class="st0" cx="50" cy="50" r="50"/>
</g>
<g id="XMLID_1919_">
	<path class="st1" d="M76.7,23.8c-11.2-1.3-19.7-4.3-25.1-9l-1.4-1.2l-1.5,1.1c-8.5,6.1-16.9,9.1-25,9.1h-2.4v33.6
		C21.2,67.7,30.3,77,49,86l1,0.5l1-0.4c18.5-7.9,27.8-17.6,27.8-28.6V24.1L76.7,23.8z M74,57.4"/>
</g>
<g id="XMLID_1915_">
	<path class="st2" d="M49.9,88.1l-1.6-0.8c-19.2-9.2-28.6-19-28.6-29.9V22.3h3.9c7.8,0,15.9-3,24.1-8.9l2.5-1.8l2.3,2
		c5.2,4.5,13.4,7.4,24.3,8.7l0,0l3.5,0.4v34.7c0,11.7-9.7,21.8-28.7,30L49.9,88.1z M22.7,25.3v32.1c0,9.7,8.8,18.6,26.9,27.2
		l0.4,0.2l0.4-0.2c17.9-7.7,26.9-16.8,26.9-27.2v-32l-0.8-0.1C65,24,56.2,20.9,50.6,16l-0.5-0.5l-0.6,0.4
		c-8.8,6.3-17.5,9.4-25.9,9.4H22.7z"/>
</g>
<g id="XMLID_1912_">
	<path class="st3" d="M72.4,28C63,27,55.9,24.4,51.3,20.4l-1.2-1l-1.3,0.9c-7.1,5.1-14.2,7.7-21,7.7h-2v28.2c0,8.6,7.6,16.5,23.3,24
		l0.8,0.4l0.8-0.4c15.5-6.7,23.4-14.7,23.4-24v-28L72.4,28z M70.2,56.2"/>
	<path class="st4" d="M51.1,80.7l-0.4-0.9c0.6-0.3,1.2-0.5,1.8-0.8l0.4,0.9C52.3,80.1,51.7,80.4,51.1,80.7z M48.9,80.6
		c-0.6-0.3-1.2-0.6-1.8-0.9l0.4-0.9c0.6,0.3,1.2,0.6,1.8,0.9L48.9,80.6z M54.8,79l-0.4-0.9c0.6-0.3,1.2-0.6,1.8-0.9l0.5,0.9
		C56,78.4,55.4,78.7,54.8,79z M45.3,78.8c-0.6-0.3-1.2-0.6-1.8-1L44,77c0.6,0.3,1.2,0.6,1.8,0.9L45.3,78.8z M58.3,77.1l-0.5-0.9
		c0.6-0.3,1.2-0.7,1.7-1l0.5,0.9C59.5,76.5,58.9,76.8,58.3,77.1z M41.8,76.9c-0.6-0.3-1.2-0.7-1.7-1l0.5-0.8c0.6,0.3,1.1,0.7,1.7,1
		L41.8,76.9z M61.8,75.1l-0.5-0.8c0.6-0.4,1.1-0.7,1.6-1.1l0.6,0.8C62.9,74.3,62.4,74.7,61.8,75.1z M38.3,74.8
		c-0.6-0.4-1.1-0.8-1.7-1.1l0.6-0.8c0.5,0.4,1.1,0.8,1.6,1.1L38.3,74.8z M65.1,72.7l-0.6-0.8c0.5-0.4,1-0.8,1.5-1.3l0.7,0.8
		C66.2,71.9,65.6,72.3,65.1,72.7z M35.1,72.4c-0.5-0.4-1.1-0.9-1.6-1.3l0.7-0.8c0.5,0.4,1,0.8,1.5,1.3L35.1,72.4z M68.2,70.1
		l-0.7-0.7c0.5-0.5,0.9-0.9,1.4-1.4l0.7,0.7C69.1,69.1,68.7,69.6,68.2,70.1z M32,69.8c-0.5-0.5-1-1-1.4-1.5l0.7-0.7
		c0.4,0.5,0.9,0.9,1.4,1.4L32,69.8z M70.9,67l-0.8-0.6c0.4-0.5,0.8-1.1,1.1-1.6l0.9,0.5C71.7,65.9,71.3,66.5,70.9,67z M29.3,66.8
		c-0.4-0.6-0.8-1.1-1.2-1.7l0.8-0.5c0.3,0.5,0.7,1.1,1.1,1.6L29.3,66.8z M73,63.5l-0.9-0.4c0.3-0.6,0.5-1.2,0.7-1.8l0.9,0.3
		C73.6,62.3,73.3,62.9,73,63.5z M27.1,63.3c-0.3-0.6-0.6-1.3-0.8-1.9l0.9-0.3c0.2,0.6,0.5,1.2,0.8,1.8L27.1,63.3z M74.3,59.6l-1-0.2
		c0.1-0.6,0.2-1.3,0.3-1.9l1,0.1C74.6,58.3,74.5,59,74.3,59.6z M25.7,59.4c-0.1-0.7-0.2-1.4-0.3-2l1-0.1c0.1,0.6,0.1,1.3,0.3,1.9
		L25.7,59.4z M74.7,55.6h-1v-2h1V55.6z M26.3,55.4h-1v-2h1V55.4z M74.7,51.6h-1v-2h1V51.6z M26.3,51.4h-1v-2h1V51.4z M74.7,47.6h-1
		v-2h1V47.6z M26.3,47.4h-1v-2h1V47.4z M74.7,43.6h-1v-2h1V43.6z M26.3,43.4h-1v-2h1V43.4z M74.7,39.6h-1v-2h1V39.6z M26.3,39.4h-1
		v-2h1V39.4z M74.7,35.6h-1v-2h1V35.6z M26.3,35.4h-1v-2h1V35.4z M74.7,31.6h-1v-2h1V31.6z M26.3,31.4h-1v-2h1V31.4z M73.5,28.6
		l-1.1-0.1c-0.7-0.1-1.3-0.2-2-0.3l0.1-1c0.6,0.1,1.3,0.2,2,0.2l1.1,0.1L73.5,28.6z M27.8,28.5h-1.4v-1h1.4c0.2,0,0.4,0,0.6,0l0,1
		C28.3,28.5,28,28.5,27.8,28.5z M30.5,28.4l-0.1-1c0.6-0.1,1.3-0.1,1.9-0.3l0.2,1C31.8,28.2,31.2,28.3,30.5,28.4z M68.4,28
		c-0.7-0.1-1.3-0.2-2-0.4l0.2-1c0.6,0.1,1.3,0.3,1.9,0.4L68.4,28z M34.5,27.7l-0.2-1c0.6-0.1,1.3-0.3,1.9-0.5l0.3,1
		C35.8,27.4,35.2,27.6,34.5,27.7z M64.4,27.1c-0.7-0.2-1.3-0.3-2-0.5l0.3-1c0.6,0.2,1.3,0.3,1.9,0.5L64.4,27.1z M38.4,26.5l-0.3-0.9
		c0.6-0.2,1.2-0.5,1.8-0.7l0.4,0.9C39.7,26.1,39,26.3,38.4,26.5z M60.5,26c-0.7-0.2-1.3-0.5-1.9-0.7l0.4-0.9
		c0.6,0.2,1.2,0.5,1.9,0.7L60.5,26z M42.1,24.9L41.7,24c0.6-0.3,1.2-0.6,1.8-0.9l0.5,0.9C43.3,24.3,42.7,24.6,42.1,24.9z M56.8,24.5
		c-0.6-0.3-1.2-0.6-1.8-0.9l0.5-0.9c0.6,0.3,1.1,0.6,1.7,0.9L56.8,24.5z M45.7,23l-0.5-0.9c0.6-0.3,1.1-0.7,1.7-1.1l0.5,0.8
		C46.8,22.3,46.2,22.7,45.7,23z M53.2,22.5c-0.6-0.4-1.1-0.8-1.6-1.2l0.6-0.8c0.5,0.4,1,0.8,1.6,1.2L53.2,22.5z M49.1,20.7L48.5,20
		l1.7-1.2l0.5,0.5l-0.4,0.4l0.1,0.1L49.1,20.7z"/>
</g>
<g>
	<defs>
		<path id="SVGID_1_" d="M71.5,28.9c-9-1-15.9-3.5-20.2-7.3l-1.2-1l-1.2,0.9c-6.9,4.9-13.6,7.4-20.2,7.4h-1.9V56
			c0,8.3,7.3,15.8,22.4,23l0.8,0.4l0.8-0.3C65.7,72.6,73.2,64.9,73.2,56V29.1L71.5,28.9z M69.4,56"/>
	</defs>
	<clipPath id="SVGID_2_">
		<use xlink:href="#SVGID_1_"  style="overflow:visible;"/>
	</clipPath>
	<g id="XMLID_1922_" class="st5">
		<g id="XMLID_2984_">
			<rect x="-13.8" y="1.4" class="st6" width="127.5" height="0.3"/>
		</g>
		<g id="XMLID_1923_">
			<path class="st6" d="M113.9,2.2h-0.3V5h-3.4V2.2H110V5h-3.4V2.2h-0.3V5H103V2.2h-0.3V5h-3.4V2.2H99V5h-3.4V2.2h-0.3V5H92V2.2
				h-0.3V5h-3.4V2.2h-0.3V5h-3.4V2.2h-0.3V5h-3.4V2.2h-0.3V5h-3.4V2.2h-0.3V5h-3.4V2.2h-0.3V5h-3.4V2.2h-0.3V5h-3.4V2.2h-0.3V5h-3.4
				V2.2h-0.3V5h-3.4V2.2H59V5h-3.4V2.2h-0.3V5H52V2.2h-0.3V5h-3.4V2.2H48V5h-3.4V2.2h-0.3V5H41V2.2h-0.3V5h-3.4V2.2h-0.3V5h-3.4V2.2
				h-0.3V5h-3.4V2.2h-0.3V5h-3.4V2.2h-0.3V5h-3.4V2.2h-0.3V5h-3.4V2.2h-0.3V5h-3.4V2.2h-0.3V5h-3.4V2.2h-0.3V5H8.2V2.2H8V5H4.6V2.2
				H4.3V5H1V2.2H0.7V5h-3.4V2.2H-3V5h-3.4V2.2h-0.3V5H-10V2.2h-0.3V5h-3.4V2.2h-0.3v101.4h0.1v0.1h127.5v-0.1h0.1V2.2z M113.6,5.3
				v3.4h-3.4V5.3H113.6z M62.6,56h-3.4v-3.4h3.4V56z M62.9,52.7h3.4V56h-3.4V52.7z M59,56h-3.4v-3.4H59V56z M55.3,56H52v-3.4h3.4V56
				z M51.7,56h-3.4v-3.4h3.4V56z M48,56h-3.4v-3.4H48V56z M44.4,56H41v-3.4h3.4V56z M40.7,56h-3.4v-3.4h3.4V56z M37.1,56h-3.4v-3.4
				h3.4V56z M33.5,56h-3.4v-3.4h3.4V56z M33.5,56.3v3.4h-3.4v-3.4H33.5z M33.7,56.3h3.4v3.4h-3.4V56.3z M37.4,56.3h3.4v3.4h-3.4
				V56.3z M41,56.3h3.4v3.4H41V56.3z M44.7,56.3H48v3.4h-3.4V56.3z M48.3,56.3h3.4v3.4h-3.4V56.3z M52,56.3h3.4v3.4H52V56.3z
				 M55.6,56.3H59v3.4h-3.4V56.3z M59.3,56.3h3.4v3.4h-3.4V56.3z M62.9,56.3h3.4v3.4h-3.4V56.3z M66.5,56.3h3.4v3.4h-3.4V56.3z
				 M66.5,56v-3.4h3.4V56H66.5z M66.5,52.4V49h3.4v3.4H66.5z M66.3,52.4h-3.4V49h3.4V52.4z M62.6,52.4h-3.4V49h3.4V52.4z M59,52.4
				h-3.4V49H59V52.4z M55.3,52.4H52V49h3.4V52.4z M51.7,52.4h-3.4V49h3.4V52.4z M48,52.4h-3.4V49H48V52.4z M44.4,52.4H41V49h3.4
				V52.4z M40.7,52.4h-3.4V49h3.4V52.4z M37.1,52.4h-3.4V49h3.4V52.4z M33.5,52.4h-3.4V49h3.4V52.4z M29.8,52.4h-3.4V49h3.4V52.4z
				 M29.8,52.7V56h-3.4v-3.4H29.8z M29.8,56.3v3.4h-3.4v-3.4H29.8z M29.8,60v3.4h-3.4V60H29.8z M30.1,60h3.4v3.4h-3.4V60z M33.7,60
				h3.4v3.4h-3.4V60z M37.4,60h3.4v3.4h-3.4V60z M41,60h3.4v3.4H41V60z M44.7,60H48v3.4h-3.4V60z M48.3,60h3.4v3.4h-3.4V60z M52,60
				h3.4v3.4H52V60z M55.6,60H59v3.4h-3.4V60z M59.3,60h3.4v3.4h-3.4V60z M62.9,60h3.4v3.4h-3.4V60z M66.5,60h3.4v3.4h-3.4V60z
				 M70.2,60h3.4v3.4h-3.4V60z M70.2,59.7v-3.4h3.4v3.4H70.2z M70.2,56v-3.4h3.4V56H70.2z M70.2,52.4V49h3.4v3.4H70.2z M70.2,48.8
				v-3.4h3.4v3.4H70.2z M69.9,48.8h-3.4v-3.4h3.4V48.8z M66.3,48.8h-3.4v-3.4h3.4V48.8z M62.6,48.8h-3.4v-3.4h3.4V48.8z M59,48.8
				h-3.4v-3.4H59V48.8z M55.3,48.8H52v-3.4h3.4V48.8z M51.7,48.8h-3.4v-3.4h3.4V48.8z M48,48.8h-3.4v-3.4H48V48.8z M44.4,48.8H41
				v-3.4h3.4V48.8z M40.7,48.8h-3.4v-3.4h3.4V48.8z M37.1,48.8h-3.4v-3.4h3.4V48.8z M33.5,48.8h-3.4v-3.4h3.4V48.8z M29.8,48.8h-3.4
				v-3.4h3.4V48.8z M26.2,48.8h-3.4v-3.4h3.4V48.8z M26.2,49v3.4h-3.4V49H26.2z M26.2,52.7V56h-3.4v-3.4H26.2z M26.2,56.3v3.4h-3.4
				v-3.4H26.2z M26.2,60v3.4h-3.4V60H26.2z M26.2,63.6V67h-3.4v-3.4H26.2z M26.5,63.6h3.4V67h-3.4V63.6z M30.1,63.6h3.4V67h-3.4
				V63.6z M33.7,63.6h3.4V67h-3.4V63.6z M37.4,63.6h3.4V67h-3.4V63.6z M41,63.6h3.4V67H41V63.6z M44.7,63.6H48V67h-3.4V63.6z
				 M48.3,63.6h3.4V67h-3.4V63.6z M52,63.6h3.4V67H52V63.6z M55.6,63.6H59V67h-3.4V63.6z M59.3,63.6h3.4V67h-3.4V63.6z M62.9,63.6
				h3.4V67h-3.4V63.6z M66.5,63.6h3.4V67h-3.4V63.6z M70.2,63.6h3.4V67h-3.4V63.6z M73.8,63.6h3.4V67h-3.4V63.6z M73.8,63.3V60h3.4
				v3.4H73.8z M73.8,59.7v-3.4h3.4v3.4H73.8z M73.8,56v-3.4h3.4V56H73.8z M73.8,52.4V49h3.4v3.4H73.8z M73.8,48.8v-3.4h3.4v3.4H73.8
				z M73.8,45.1v-3.4h3.4v3.4H73.8z M73.5,45.1h-3.4v-3.4h3.4V45.1z M69.9,45.1h-3.4v-3.4h3.4V45.1z M66.3,45.1h-3.4v-3.4h3.4V45.1z
				 M62.6,45.1h-3.4v-3.4h3.4V45.1z M59,45.1h-3.4v-3.4H59V45.1z M55.3,45.1H52v-3.4h3.4V45.1z M51.7,45.1h-3.4v-3.4h3.4V45.1z
				 M48,45.1h-3.4v-3.4H48V45.1z M44.4,45.1H41v-3.4h3.4V45.1z M40.7,45.1h-3.4v-3.4h3.4V45.1z M37.1,45.1h-3.4v-3.4h3.4V45.1z
				 M33.5,45.1h-3.4v-3.4h3.4V45.1z M29.8,45.1h-3.4v-3.4h3.4V45.1z M26.2,45.1h-3.4v-3.4h3.4V45.1z M22.5,45.1h-3.4v-3.4h3.4V45.1z
				 M22.5,45.4v3.4h-3.4v-3.4H22.5z M22.5,49v3.4h-3.4V49H22.5z M22.5,52.7V56h-3.4v-3.4H22.5z M22.5,56.3v3.4h-3.4v-3.4H22.5z
				 M22.5,60v3.4h-3.4V60H22.5z M22.5,63.6V67h-3.4v-3.4H22.5z M22.5,67.3v3.4h-3.4v-3.4H22.5z M22.8,67.3h3.4v3.4h-3.4V67.3z
				 M26.5,67.3h3.4v3.4h-3.4V67.3z M30.1,67.3h3.4v3.4h-3.4V67.3z M33.7,67.3h3.4v3.4h-3.4V67.3z M37.4,67.3h3.4v3.4h-3.4V67.3z
				 M41,67.3h3.4v3.4H41V67.3z M44.7,67.3H48v3.4h-3.4V67.3z M48.3,67.3h3.4v3.4h-3.4V67.3z M52,67.3h3.4v3.4H52V67.3z M55.6,67.3
				H59v3.4h-3.4V67.3z M59.3,67.3h3.4v3.4h-3.4V67.3z M62.9,67.3h3.4v3.4h-3.4V67.3z M66.5,67.3h3.4v3.4h-3.4V67.3z M70.2,67.3h3.4
				v3.4h-3.4V67.3z M73.8,67.3h3.4v3.4h-3.4V67.3z M77.5,67.3h3.4v3.4h-3.4V67.3z M77.5,67v-3.4h3.4V67H77.5z M77.5,63.3V60h3.4v3.4
				H77.5z M77.5,59.7v-3.4h3.4v3.4H77.5z M77.5,56v-3.4h3.4V56H77.5z M77.5,52.4V49h3.4v3.4H77.5z M77.5,48.8v-3.4h3.4v3.4H77.5z
				 M77.5,45.1v-3.4h3.4v3.4H77.5z M77.5,41.5v-3.4h3.4v3.4H77.5z M77.2,41.5h-3.4v-3.4h3.4V41.5z M73.5,41.5h-3.4v-3.4h3.4V41.5z
				 M69.9,41.5h-3.4v-3.4h3.4V41.5z M66.3,41.5h-3.4v-3.4h3.4V41.5z M62.6,41.5h-3.4v-3.4h3.4V41.5z M59,41.5h-3.4v-3.4H59V41.5z
				 M55.3,41.5H52v-3.4h3.4V41.5z M51.7,41.5h-3.4v-3.4h3.4V41.5z M48,41.5h-3.4v-3.4H48V41.5z M44.4,41.5H41v-3.4h3.4V41.5z
				 M40.7,41.5h-3.4v-3.4h3.4V41.5z M37.1,41.5h-3.4v-3.4h3.4V41.5z M33.5,41.5h-3.4v-3.4h3.4V41.5z M29.8,41.5h-3.4v-3.4h3.4V41.5z
				 M26.2,41.5h-3.4v-3.4h3.4V41.5z M22.5,41.5h-3.4v-3.4h3.4V41.5z M18.9,41.5h-3.4v-3.4h3.4V41.5z M18.9,41.8v3.4h-3.4v-3.4H18.9z
				 M18.9,45.4v3.4h-3.4v-3.4H18.9z M18.9,49v3.4h-3.4V49H18.9z M18.9,52.7V56h-3.4v-3.4H18.9z M18.9,56.3v3.4h-3.4v-3.4H18.9z
				 M18.9,60v3.4h-3.4V60H18.9z M18.9,63.6V67h-3.4v-3.4H18.9z M18.9,67.3v3.4h-3.4v-3.4H18.9z M18.9,70.9v3.4h-3.4v-3.4H18.9z
				 M19.2,70.9h3.4v3.4h-3.4V70.9z M22.8,70.9h3.4v3.4h-3.4V70.9z M26.5,70.9h3.4v3.4h-3.4V70.9z M30.1,70.9h3.4v3.4h-3.4V70.9z
				 M33.7,70.9h3.4v3.4h-3.4V70.9z M37.4,70.9h3.4v3.4h-3.4V70.9z M41,70.9h3.4v3.4H41V70.9z M44.7,70.9H48v3.4h-3.4V70.9z
				 M48.3,70.9h3.4v3.4h-3.4V70.9z M52,70.9h3.4v3.4H52V70.9z M55.6,70.9H59v3.4h-3.4V70.9z M59.3,70.9h3.4v3.4h-3.4V70.9z
				 M62.9,70.9h3.4v3.4h-3.4V70.9z M66.5,70.9h3.4v3.4h-3.4V70.9z M70.2,70.9h3.4v3.4h-3.4V70.9z M73.8,70.9h3.4v3.4h-3.4V70.9z
				 M77.5,70.9h3.4v3.4h-3.4V70.9z M81.1,70.9h3.4v3.4h-3.4V70.9z M81.1,70.6v-3.4h3.4v3.4H81.1z M81.1,67v-3.4h3.4V67H81.1z
				 M81.1,63.3V60h3.4v3.4H81.1z M81.1,59.7v-3.4h3.4v3.4H81.1z M81.1,56v-3.4h3.4V56H81.1z M81.1,52.4V49h3.4v3.4H81.1z M81.1,48.8
				v-3.4h3.4v3.4H81.1z M81.1,45.1v-3.4h3.4v3.4H81.1z M81.1,41.5v-3.4h3.4v3.4H81.1z M81.1,37.8v-3.4h3.4v3.4H81.1z M80.8,37.8
				h-3.4v-3.4h3.4V37.8z M77.2,37.8h-3.4v-3.4h3.4V37.8z M73.5,37.8h-3.4v-3.4h3.4V37.8z M69.9,37.8h-3.4v-3.4h3.4V37.8z M66.3,37.8
				h-3.4v-3.4h3.4V37.8z M62.6,37.8h-3.4v-3.4h3.4V37.8z M59,37.8h-3.4v-3.4H59V37.8z M55.3,37.8H52v-3.4h3.4V37.8z M51.7,37.8h-3.4
				v-3.4h3.4V37.8z M48,37.8h-3.4v-3.4H48V37.8z M44.4,37.8H41v-3.4h3.4V37.8z M40.7,37.8h-3.4v-3.4h3.4V37.8z M37.1,37.8h-3.4v-3.4
				h3.4V37.8z M33.5,37.8h-3.4v-3.4h3.4V37.8z M29.8,37.8h-3.4v-3.4h3.4V37.8z M26.2,37.8h-3.4v-3.4h3.4V37.8z M22.5,37.8h-3.4v-3.4
				h3.4V37.8z M18.9,37.8h-3.4v-3.4h3.4V37.8z M15.2,37.8h-3.4v-3.4h3.4V37.8z M15.2,38.1v3.4h-3.4v-3.4H15.2z M15.2,41.8v3.4h-3.4
				v-3.4H15.2z M15.2,45.4v3.4h-3.4v-3.4H15.2z M15.2,49v3.4h-3.4V49H15.2z M15.2,52.7V56h-3.4v-3.4H15.2z M15.2,56.3v3.4h-3.4v-3.4
				H15.2z M15.2,60v3.4h-3.4V60H15.2z M15.2,63.6V67h-3.4v-3.4H15.2z M15.2,67.3v3.4h-3.4v-3.4H15.2z M15.2,70.9v3.4h-3.4v-3.4H15.2
				z M15.2,74.6v3.4h-3.4v-3.4H15.2z M15.5,74.6h3.4v3.4h-3.4V74.6z M19.2,74.6h3.4v3.4h-3.4V74.6z M22.8,74.6h3.4v3.4h-3.4V74.6z
				 M26.5,74.6h3.4v3.4h-3.4V74.6z M30.1,74.6h3.4v3.4h-3.4V74.6z M33.7,74.6h3.4v3.4h-3.4V74.6z M37.4,74.6h3.4v3.4h-3.4V74.6z
				 M41,74.6h3.4v3.4H41V74.6z M44.7,74.6H48v3.4h-3.4V74.6z M48.3,74.6h3.4v3.4h-3.4V74.6z M52,74.6h3.4v3.4H52V74.6z M55.6,74.6
				H59v3.4h-3.4V74.6z M59.3,74.6h3.4v3.4h-3.4V74.6z M62.9,74.6h3.4v3.4h-3.4V74.6z M66.5,74.6h3.4v3.4h-3.4V74.6z M70.2,74.6h3.4
				v3.4h-3.4V74.6z M73.8,74.6h3.4v3.4h-3.4V74.6z M77.5,74.6h3.4v3.4h-3.4V74.6z M81.1,74.6h3.4v3.4h-3.4V74.6z M84.8,74.6h3.4v3.4
				h-3.4V74.6z M84.8,74.3v-3.4h3.4v3.4H84.8z M84.8,70.6v-3.4h3.4v3.4H84.8z M84.8,67v-3.4h3.4V67H84.8z M84.8,63.3V60h3.4v3.4
				H84.8z M84.8,59.7v-3.4h3.4v3.4H84.8z M84.8,56v-3.4h3.4V56H84.8z M84.8,52.4V49h3.4v3.4H84.8z M84.8,48.8v-3.4h3.4v3.4H84.8z
				 M84.8,45.1v-3.4h3.4v3.4H84.8z M84.8,41.5v-3.4h3.4v3.4H84.8z M84.8,37.8v-3.4h3.4v3.4H84.8z M84.8,34.2v-3.4h3.4v3.4H84.8z
				 M84.5,34.2h-3.4v-3.4h3.4V34.2z M80.8,34.2h-3.4v-3.4h3.4V34.2z M77.2,34.2h-3.4v-3.4h3.4V34.2z M73.5,34.2h-3.4v-3.4h3.4V34.2z
				 M69.9,34.2h-3.4v-3.4h3.4V34.2z M66.3,34.2h-3.4v-3.4h3.4V34.2z M62.6,34.2h-3.4v-3.4h3.4V34.2z M59,34.2h-3.4v-3.4H59V34.2z
				 M55.3,34.2H52v-3.4h3.4V34.2z M51.7,34.2h-3.4v-3.4h3.4V34.2z M48,34.2h-3.4v-3.4H48V34.2z M44.4,34.2H41v-3.4h3.4V34.2z
				 M40.7,34.2h-3.4v-3.4h3.4V34.2z M37.1,34.2h-3.4v-3.4h3.4V34.2z M33.5,34.2h-3.4v-3.4h3.4V34.2z M29.8,34.2h-3.4v-3.4h3.4V34.2z
				 M26.2,34.2h-3.4v-3.4h3.4V34.2z M22.5,34.2h-3.4v-3.4h3.4V34.2z M18.9,34.2h-3.4v-3.4h3.4V34.2z M15.2,34.2h-3.4v-3.4h3.4V34.2z
				 M11.6,34.2H8.2v-3.4h3.4V34.2z M11.6,34.5v3.4H8.2v-3.4H11.6z M11.6,38.1v3.4H8.2v-3.4H11.6z M11.6,41.8v3.4H8.2v-3.4H11.6z
				 M11.6,45.4v3.4H8.2v-3.4H11.6z M11.6,49v3.4H8.2V49H11.6z M11.6,52.7V56H8.2v-3.4H11.6z M11.6,56.3v3.4H8.2v-3.4H11.6z M11.6,60
				v3.4H8.2V60H11.6z M11.6,63.6V67H8.2v-3.4H11.6z M11.6,67.3v3.4H8.2v-3.4H11.6z M11.6,70.9v3.4H8.2v-3.4H11.6z M11.6,74.6v3.4
				H8.2v-3.4H11.6z M11.6,78.2v3.4H8.2v-3.4H11.6z M11.9,78.2h3.4v3.4h-3.4V78.2z M15.5,78.2h3.4v3.4h-3.4V78.2z M19.2,78.2h3.4v3.4
				h-3.4V78.2z M22.8,78.2h3.4v3.4h-3.4V78.2z M26.5,78.2h3.4v3.4h-3.4V78.2z M30.1,78.2h3.4v3.4h-3.4V78.2z M33.7,78.2h3.4v3.4
				h-3.4V78.2z M37.4,78.2h3.4v3.4h-3.4V78.2z M41,78.2h3.4v3.4H41V78.2z M44.7,78.2H48v3.4h-3.4V78.2z M48.3,78.2h3.4v3.4h-3.4
				V78.2z M52,78.2h3.4v3.4H52V78.2z M55.6,78.2H59v3.4h-3.4V78.2z M59.3,78.2h3.4v3.4h-3.4V78.2z M62.9,78.2h3.4v3.4h-3.4V78.2z
				 M66.5,78.2h3.4v3.4h-3.4V78.2z M70.2,78.2h3.4v3.4h-3.4V78.2z M73.8,78.2h3.4v3.4h-3.4V78.2z M77.5,78.2h3.4v3.4h-3.4V78.2z
				 M81.1,78.2h3.4v3.4h-3.4V78.2z M84.8,78.2h3.4v3.4h-3.4V78.2z M88.4,78.2h3.4v3.4h-3.4V78.2z M88.4,77.9v-3.4h3.4v3.4H88.4z
				 M88.4,74.3v-3.4h3.4v3.4H88.4z M88.4,70.6v-3.4h3.4v3.4H88.4z M88.4,67v-3.4h3.4V67H88.4z M88.4,63.3V60h3.4v3.4H88.4z
				 M88.4,59.7v-3.4h3.4v3.4H88.4z M88.4,56v-3.4h3.4V56H88.4z M88.4,52.4V49h3.4v3.4H88.4z M88.4,48.8v-3.4h3.4v3.4H88.4z
				 M88.4,45.1v-3.4h3.4v3.4H88.4z M88.4,41.5v-3.4h3.4v3.4H88.4z M88.4,37.8v-3.4h3.4v3.4H88.4z M88.4,34.2v-3.4h3.4v3.4H88.4z
				 M88.4,30.5v-3.4h3.4v3.4H88.4z M88.1,30.5h-3.4v-3.4h3.4V30.5z M84.5,30.5h-3.4v-3.4h3.4V30.5z M80.8,30.5h-3.4v-3.4h3.4V30.5z
				 M77.2,30.5h-3.4v-3.4h3.4V30.5z M73.5,30.5h-3.4v-3.4h3.4V30.5z M69.9,30.5h-3.4v-3.4h3.4V30.5z M66.3,30.5h-3.4v-3.4h3.4V30.5z
				 M62.6,30.5h-3.4v-3.4h3.4V30.5z M59,30.5h-3.4v-3.4H59V30.5z M55.3,30.5H52v-3.4h3.4V30.5z M51.7,30.5h-3.4v-3.4h3.4V30.5z
				 M48,30.5h-3.4v-3.4H48V30.5z M44.4,30.5H41v-3.4h3.4V30.5z M40.7,30.5h-3.4v-3.4h3.4V30.5z M37.1,30.5h-3.4v-3.4h3.4V30.5z
				 M33.5,30.5h-3.4v-3.4h3.4V30.5z M29.8,30.5h-3.4v-3.4h3.4V30.5z M26.2,30.5h-3.4v-3.4h3.4V30.5z M22.5,30.5h-3.4v-3.4h3.4V30.5z
				 M18.9,30.5h-3.4v-3.4h3.4V30.5z M15.2,30.5h-3.4v-3.4h3.4V30.5z M11.6,30.5H8.2v-3.4h3.4V30.5z M8,30.5H4.6v-3.4H8V30.5z
				 M8,30.8v3.4H4.6v-3.4H8z M8,34.5v3.4H4.6v-3.4H8z M8,38.1v3.4H4.6v-3.4H8z M8,41.8v3.4H4.6v-3.4H8z M8,45.4v3.4H4.6v-3.4H8z
				 M8,49v3.4H4.6V49H8z M8,52.7V56H4.6v-3.4H8z M8,56.3v3.4H4.6v-3.4H8z M8,60v3.4H4.6V60H8z M8,63.6V67H4.6v-3.4H8z M8,67.3v3.4
				H4.6v-3.4H8z M8,70.9v3.4H4.6v-3.4H8z M8,74.6v3.4H4.6v-3.4H8z M8,78.2v3.4H4.6v-3.4H8z M8,81.8v3.4H4.6v-3.4H8z M8.2,81.8h3.4
				v3.4H8.2V81.8z M11.9,81.8h3.4v3.4h-3.4V81.8z M15.5,81.8h3.4v3.4h-3.4V81.8z M19.2,81.8h3.4v3.4h-3.4V81.8z M22.8,81.8h3.4v3.4
				h-3.4V81.8z M26.5,81.8h3.4v3.4h-3.4V81.8z M30.1,81.8h3.4v3.4h-3.4V81.8z M33.7,81.8h3.4v3.4h-3.4V81.8z M37.4,81.8h3.4v3.4
				h-3.4V81.8z M41,81.8h3.4v3.4H41V81.8z M44.7,81.8H48v3.4h-3.4V81.8z M48.3,81.8h3.4v3.4h-3.4V81.8z M52,81.8h3.4v3.4H52V81.8z
				 M55.6,81.8H59v3.4h-3.4V81.8z M59.3,81.8h3.4v3.4h-3.4V81.8z M62.9,81.8h3.4v3.4h-3.4V81.8z M66.5,81.8h3.4v3.4h-3.4V81.8z
				 M70.2,81.8h3.4v3.4h-3.4V81.8z M73.8,81.8h3.4v3.4h-3.4V81.8z M77.5,81.8h3.4v3.4h-3.4V81.8z M81.1,81.8h3.4v3.4h-3.4V81.8z
				 M84.8,81.8h3.4v3.4h-3.4V81.8z M88.4,81.8h3.4v3.4h-3.4V81.8z M92,81.8h3.4v3.4H92V81.8z M92,81.5v-3.4h3.4v3.4H92z M92,77.9
				v-3.4h3.4v3.4H92z M92,74.3v-3.4h3.4v3.4H92z M92,70.6v-3.4h3.4v3.4H92z M92,67v-3.4h3.4V67H92z M92,63.3V60h3.4v3.4H92z
				 M92,59.7v-3.4h3.4v3.4H92z M92,56v-3.4h3.4V56H92z M92,52.4V49h3.4v3.4H92z M92,48.8v-3.4h3.4v3.4H92z M92,45.1v-3.4h3.4v3.4H92
				z M92,41.5v-3.4h3.4v3.4H92z M92,37.8v-3.4h3.4v3.4H92z M92,34.2v-3.4h3.4v3.4H92z M92,30.5v-3.4h3.4v3.4H92z M92,26.9v-3.4h3.4
				v3.4H92z M91.8,26.9h-3.4v-3.4h3.4V26.9z M88.1,26.9h-3.4v-3.4h3.4V26.9z M84.5,26.9h-3.4v-3.4h3.4V26.9z M80.8,26.9h-3.4v-3.4
				h3.4V26.9z M77.2,26.9h-3.4v-3.4h3.4V26.9z M73.5,26.9h-3.4v-3.4h3.4V26.9z M69.9,26.9h-3.4v-3.4h3.4V26.9z M66.3,26.9h-3.4v-3.4
				h3.4V26.9z M62.6,26.9h-3.4v-3.4h3.4V26.9z M59,26.9h-3.4v-3.4H59V26.9z M55.3,26.9H52v-3.4h3.4V26.9z M51.7,26.9h-3.4v-3.4h3.4
				V26.9z M48,26.9h-3.4v-3.4H48V26.9z M44.4,26.9H41v-3.4h3.4V26.9z M40.7,26.9h-3.4v-3.4h3.4V26.9z M37.1,26.9h-3.4v-3.4h3.4V26.9
				z M33.5,26.9h-3.4v-3.4h3.4V26.9z M29.8,26.9h-3.4v-3.4h3.4V26.9z M26.2,26.9h-3.4v-3.4h3.4V26.9z M22.5,26.9h-3.4v-3.4h3.4V26.9
				z M18.9,26.9h-3.4v-3.4h3.4V26.9z M15.2,26.9h-3.4v-3.4h3.4V26.9z M11.6,26.9H8.2v-3.4h3.4V26.9z M8,26.9H4.6v-3.4H8V26.9z
				 M4.3,26.9H1v-3.4h3.4V26.9z M4.3,27.2v3.4H1v-3.4H4.3z M4.3,30.8v3.4H1v-3.4H4.3z M4.3,34.5v3.4H1v-3.4H4.3z M4.3,38.1v3.4H1
				v-3.4H4.3z M4.3,41.8v3.4H1v-3.4H4.3z M4.3,45.4v3.4H1v-3.4H4.3z M4.3,49v3.4H1V49H4.3z M4.3,52.7V56H1v-3.4H4.3z M4.3,56.3v3.4
				H1v-3.4H4.3z M4.3,60v3.4H1V60H4.3z M4.3,63.6V67H1v-3.4H4.3z M4.3,67.3v3.4H1v-3.4H4.3z M4.3,70.9v3.4H1v-3.4H4.3z M4.3,74.6
				v3.4H1v-3.4H4.3z M4.3,78.2v3.4H1v-3.4H4.3z M4.3,81.8v3.4H1v-3.4H4.3z M4.3,85.5v3.4H1v-3.4H4.3z M4.6,85.5H8v3.4H4.6V85.5z
				 M8.2,85.5h3.4v3.4H8.2V85.5z M11.9,85.5h3.4v3.4h-3.4V85.5z M15.5,85.5h3.4v3.4h-3.4V85.5z M19.2,85.5h3.4v3.4h-3.4V85.5z
				 M22.8,85.5h3.4v3.4h-3.4V85.5z M26.5,85.5h3.4v3.4h-3.4V85.5z M30.1,85.5h3.4v3.4h-3.4V85.5z M33.7,85.5h3.4v3.4h-3.4V85.5z
				 M37.4,85.5h3.4v3.4h-3.4V85.5z M41,85.5h3.4v3.4H41V85.5z M44.7,85.5H48v3.4h-3.4V85.5z M48.3,85.5h3.4v3.4h-3.4V85.5z M52,85.5
				h3.4v3.4H52V85.5z M55.6,85.5H59v3.4h-3.4V85.5z M59.3,85.5h3.4v3.4h-3.4V85.5z M62.9,85.5h3.4v3.4h-3.4V85.5z M66.5,85.5h3.4
				v3.4h-3.4V85.5z M70.2,85.5h3.4v3.4h-3.4V85.5z M73.8,85.5h3.4v3.4h-3.4V85.5z M77.5,85.5h3.4v3.4h-3.4V85.5z M81.1,85.5h3.4v3.4
				h-3.4V85.5z M84.8,85.5h3.4v3.4h-3.4V85.5z M88.4,85.5h3.4v3.4h-3.4V85.5z M92,85.5h3.4v3.4H92V85.5z M95.7,85.5H99v3.4h-3.4
				V85.5z M95.7,85.2v-3.4H99v3.4H95.7z M95.7,81.5v-3.4H99v3.4H95.7z M95.7,77.9v-3.4H99v3.4H95.7z M95.7,74.3v-3.4H99v3.4H95.7z
				 M95.7,70.6v-3.4H99v3.4H95.7z M95.7,67v-3.4H99V67H95.7z M95.7,63.3V60H99v3.4H95.7z M95.7,59.7v-3.4H99v3.4H95.7z M95.7,56
				v-3.4H99V56H95.7z M95.7,52.4V49H99v3.4H95.7z M95.7,48.8v-3.4H99v3.4H95.7z M95.7,45.1v-3.4H99v3.4H95.7z M95.7,41.5v-3.4H99
				v3.4H95.7z M95.7,37.8v-3.4H99v3.4H95.7z M95.7,34.2v-3.4H99v3.4H95.7z M95.7,30.5v-3.4H99v3.4H95.7z M95.7,26.9v-3.4H99v3.4
				H95.7z M95.7,23.2v-3.4H99v3.4H95.7z M95.4,23.2H92v-3.4h3.4V23.2z M91.8,23.2h-3.4v-3.4h3.4V23.2z M88.1,23.2h-3.4v-3.4h3.4
				V23.2z M84.5,23.2h-3.4v-3.4h3.4V23.2z M80.8,23.2h-3.4v-3.4h3.4V23.2z M77.2,23.2h-3.4v-3.4h3.4V23.2z M73.5,23.2h-3.4v-3.4h3.4
				V23.2z M69.9,23.2h-3.4v-3.4h3.4V23.2z M66.3,23.2h-3.4v-3.4h3.4V23.2z M62.6,23.2h-3.4v-3.4h3.4V23.2z M59,23.2h-3.4v-3.4H59
				V23.2z M55.3,23.2H52v-3.4h3.4V23.2z M51.7,23.2h-3.4v-3.4h3.4V23.2z M48,23.2h-3.4v-3.4H48V23.2z M44.4,23.2H41v-3.4h3.4V23.2z
				 M40.7,23.2h-3.4v-3.4h3.4V23.2z M37.1,23.2h-3.4v-3.4h3.4V23.2z M33.5,23.2h-3.4v-3.4h3.4V23.2z M29.8,23.2h-3.4v-3.4h3.4V23.2z
				 M26.2,23.2h-3.4v-3.4h3.4V23.2z M22.5,23.2h-3.4v-3.4h3.4V23.2z M18.9,23.2h-3.4v-3.4h3.4V23.2z M15.2,23.2h-3.4v-3.4h3.4V23.2z
				 M11.6,23.2H8.2v-3.4h3.4V23.2z M8,23.2H4.6v-3.4H8V23.2z M4.3,23.2H1v-3.4h3.4V23.2z M0.7,23.2h-3.4v-3.4h3.4V23.2z M0.7,23.5
				v3.4h-3.4v-3.4H0.7z M0.7,27.2v3.4h-3.4v-3.4H0.7z M0.7,30.8v3.4h-3.4v-3.4H0.7z M0.7,34.5v3.4h-3.4v-3.4H0.7z M0.7,38.1v3.4
				h-3.4v-3.4H0.7z M0.7,41.8v3.4h-3.4v-3.4H0.7z M0.7,45.4v3.4h-3.4v-3.4H0.7z M0.7,49v3.4h-3.4V49H0.7z M0.7,52.7V56h-3.4v-3.4
				H0.7z M0.7,56.3v3.4h-3.4v-3.4H0.7z M0.7,60v3.4h-3.4V60H0.7z M0.7,63.6V67h-3.4v-3.4H0.7z M0.7,67.3v3.4h-3.4v-3.4H0.7z
				 M0.7,70.9v3.4h-3.4v-3.4H0.7z M0.7,74.6v3.4h-3.4v-3.4H0.7z M0.7,78.2v3.4h-3.4v-3.4H0.7z M0.7,81.8v3.4h-3.4v-3.4H0.7z
				 M0.7,85.5v3.4h-3.4v-3.4H0.7z M0.7,89.1v3.4h-3.4v-3.4H0.7z M1,89.1h3.4v3.4H1V89.1z M4.6,89.1H8v3.4H4.6V89.1z M8.2,89.1h3.4
				v3.4H8.2V89.1z M11.9,89.1h3.4v3.4h-3.4V89.1z M15.5,89.1h3.4v3.4h-3.4V89.1z M19.2,89.1h3.4v3.4h-3.4V89.1z M22.8,89.1h3.4v3.4
				h-3.4V89.1z M26.5,89.1h3.4v3.4h-3.4V89.1z M30.1,89.1h3.4v3.4h-3.4V89.1z M33.7,89.1h3.4v3.4h-3.4V89.1z M37.4,89.1h3.4v3.4
				h-3.4V89.1z M41,89.1h3.4v3.4H41V89.1z M44.7,89.1H48v3.4h-3.4V89.1z M48.3,89.1h3.4v3.4h-3.4V89.1z M52,89.1h3.4v3.4H52V89.1z
				 M55.6,89.1H59v3.4h-3.4V89.1z M59.3,89.1h3.4v3.4h-3.4V89.1z M62.9,89.1h3.4v3.4h-3.4V89.1z M66.5,89.1h3.4v3.4h-3.4V89.1z
				 M70.2,89.1h3.4v3.4h-3.4V89.1z M73.8,89.1h3.4v3.4h-3.4V89.1z M77.5,89.1h3.4v3.4h-3.4V89.1z M81.1,89.1h3.4v3.4h-3.4V89.1z
				 M84.8,89.1h3.4v3.4h-3.4V89.1z M88.4,89.1h3.4v3.4h-3.4V89.1z M92,89.1h3.4v3.4H92V89.1z M95.7,89.1H99v3.4h-3.4V89.1z
				 M99.3,89.1h3.4v3.4h-3.4V89.1z M99.3,88.8v-3.4h3.4v3.4H99.3z M99.3,85.2v-3.4h3.4v3.4H99.3z M99.3,81.5v-3.4h3.4v3.4H99.3z
				 M99.3,77.9v-3.4h3.4v3.4H99.3z M99.3,74.3v-3.4h3.4v3.4H99.3z M99.3,70.6v-3.4h3.4v3.4H99.3z M99.3,67v-3.4h3.4V67H99.3z
				 M99.3,63.3V60h3.4v3.4H99.3z M99.3,59.7v-3.4h3.4v3.4H99.3z M99.3,56v-3.4h3.4V56H99.3z M99.3,52.4V49h3.4v3.4H99.3z M99.3,48.8
				v-3.4h3.4v3.4H99.3z M99.3,45.1v-3.4h3.4v3.4H99.3z M99.3,41.5v-3.4h3.4v3.4H99.3z M99.3,37.8v-3.4h3.4v3.4H99.3z M99.3,34.2
				v-3.4h3.4v3.4H99.3z M99.3,30.5v-3.4h3.4v3.4H99.3z M99.3,26.9v-3.4h3.4v3.4H99.3z M99.3,23.2v-3.4h3.4v3.4H99.3z M99.3,19.6
				v-3.4h3.4v3.4H99.3z M99,19.6h-3.4v-3.4H99V19.6z M95.4,19.6H92v-3.4h3.4V19.6z M91.8,19.6h-3.4v-3.4h3.4V19.6z M88.1,19.6h-3.4
				v-3.4h3.4V19.6z M84.5,19.6h-3.4v-3.4h3.4V19.6z M80.8,19.6h-3.4v-3.4h3.4V19.6z M77.2,19.6h-3.4v-3.4h3.4V19.6z M73.5,19.6h-3.4
				v-3.4h3.4V19.6z M69.9,19.6h-3.4v-3.4h3.4V19.6z M66.3,19.6h-3.4v-3.4h3.4V19.6z M62.6,19.6h-3.4v-3.4h3.4V19.6z M59,19.6h-3.4
				v-3.4H59V19.6z M55.3,19.6H52v-3.4h3.4V19.6z M51.7,19.6h-3.4v-3.4h3.4V19.6z M48,19.6h-3.4v-3.4H48V19.6z M44.4,19.6H41v-3.4
				h3.4V19.6z M40.7,19.6h-3.4v-3.4h3.4V19.6z M37.1,19.6h-3.4v-3.4h3.4V19.6z M33.5,19.6h-3.4v-3.4h3.4V19.6z M29.8,19.6h-3.4v-3.4
				h3.4V19.6z M26.2,19.6h-3.4v-3.4h3.4V19.6z M22.5,19.6h-3.4v-3.4h3.4V19.6z M18.9,19.6h-3.4v-3.4h3.4V19.6z M15.2,19.6h-3.4v-3.4
				h3.4V19.6z M11.6,19.6H8.2v-3.4h3.4V19.6z M8,19.6H4.6v-3.4H8V19.6z M4.3,19.6H1v-3.4h3.4V19.6z M0.7,19.6h-3.4v-3.4h3.4V19.6z
				 M-3,19.6h-3.4v-3.4H-3V19.6z M-3,19.9v3.4h-3.4v-3.4H-3z M-3,23.5v3.4h-3.4v-3.4H-3z M-3,27.2v3.4h-3.4v-3.4H-3z M-3,30.8v3.4
				h-3.4v-3.4H-3z M-3,34.5v3.4h-3.4v-3.4H-3z M-3,38.1v3.4h-3.4v-3.4H-3z M-3,41.8v3.4h-3.4v-3.4H-3z M-3,45.4v3.4h-3.4v-3.4H-3z
				 M-3,49v3.4h-3.4V49H-3z M-3,52.7V56h-3.4v-3.4H-3z M-3,56.3v3.4h-3.4v-3.4H-3z M-3,60v3.4h-3.4V60H-3z M-3,63.6V67h-3.4v-3.4H-3
				z M-3,67.3v3.4h-3.4v-3.4H-3z M-3,70.9v3.4h-3.4v-3.4H-3z M-3,74.6v3.4h-3.4v-3.4H-3z M-3,78.2v3.4h-3.4v-3.4H-3z M-3,81.8v3.4
				h-3.4v-3.4H-3z M-3,85.5v3.4h-3.4v-3.4H-3z M-3,89.1v3.4h-3.4v-3.4H-3z M-3,92.8v3.4h-3.4v-3.4H-3z M-2.7,92.8h3.4v3.4h-3.4V92.8
				z M1,92.8h3.4v3.4H1V92.8z M4.6,92.8H8v3.4H4.6V92.8z M8.2,92.8h3.4v3.4H8.2V92.8z M11.9,92.8h3.4v3.4h-3.4V92.8z M15.5,92.8h3.4
				v3.4h-3.4V92.8z M19.2,92.8h3.4v3.4h-3.4V92.8z M22.8,92.8h3.4v3.4h-3.4V92.8z M26.5,92.8h3.4v3.4h-3.4V92.8z M30.1,92.8h3.4v3.4
				h-3.4V92.8z M33.7,92.8h3.4v3.4h-3.4V92.8z M37.4,92.8h3.4v3.4h-3.4V92.8z M41,92.8h3.4v3.4H41V92.8z M44.7,92.8H48v3.4h-3.4
				V92.8z M48.3,92.8h3.4v3.4h-3.4V92.8z M52,92.8h3.4v3.4H52V92.8z M55.6,92.8H59v3.4h-3.4V92.8z M59.3,92.8h3.4v3.4h-3.4V92.8z
				 M62.9,92.8h3.4v3.4h-3.4V92.8z M66.5,92.8h3.4v3.4h-3.4V92.8z M70.2,92.8h3.4v3.4h-3.4V92.8z M73.8,92.8h3.4v3.4h-3.4V92.8z
				 M77.5,92.8h3.4v3.4h-3.4V92.8z M81.1,92.8h3.4v3.4h-3.4V92.8z M84.8,92.8h3.4v3.4h-3.4V92.8z M88.4,92.8h3.4v3.4h-3.4V92.8z
				 M92,92.8h3.4v3.4H92V92.8z M95.7,92.8H99v3.4h-3.4V92.8z M99.3,92.8h3.4v3.4h-3.4V92.8z M103,92.8h3.4v3.4H103V92.8z M103,92.5
				v-3.4h3.4v3.4H103z M103,88.8v-3.4h3.4v3.4H103z M103,85.2v-3.4h3.4v3.4H103z M103,81.5v-3.4h3.4v3.4H103z M103,77.9v-3.4h3.4
				v3.4H103z M103,74.3v-3.4h3.4v3.4H103z M103,70.6v-3.4h3.4v3.4H103z M103,67v-3.4h3.4V67H103z M103,63.3V60h3.4v3.4H103z
				 M103,59.7v-3.4h3.4v3.4H103z M103,56v-3.4h3.4V56H103z M103,52.4V49h3.4v3.4H103z M103,48.8v-3.4h3.4v3.4H103z M103,45.1v-3.4
				h3.4v3.4H103z M103,41.5v-3.4h3.4v3.4H103z M103,37.8v-3.4h3.4v3.4H103z M103,34.2v-3.4h3.4v3.4H103z M103,30.5v-3.4h3.4v3.4H103
				z M103,26.9v-3.4h3.4v3.4H103z M103,23.2v-3.4h3.4v3.4H103z M103,19.6v-3.4h3.4v3.4H103z M103,16v-3.4h3.4V16H103z M102.7,16
				h-3.4v-3.4h3.4V16z M99,16h-3.4v-3.4H99V16z M95.4,16H92v-3.4h3.4V16z M91.8,16h-3.4v-3.4h3.4V16z M88.1,16h-3.4v-3.4h3.4V16z
				 M84.5,16h-3.4v-3.4h3.4V16z M80.8,16h-3.4v-3.4h3.4V16z M77.2,16h-3.4v-3.4h3.4V16z M73.5,16h-3.4v-3.4h3.4V16z M69.9,16h-3.4
				v-3.4h3.4V16z M66.3,16h-3.4v-3.4h3.4V16z M62.6,16h-3.4v-3.4h3.4V16z M59,16h-3.4v-3.4H59V16z M55.3,16H52v-3.4h3.4V16z
				 M51.7,16h-3.4v-3.4h3.4V16z M48,16h-3.4v-3.4H48V16z M44.4,16H41v-3.4h3.4V16z M40.7,16h-3.4v-3.4h3.4V16z M37.1,16h-3.4v-3.4
				h3.4V16z M33.5,16h-3.4v-3.4h3.4V16z M29.8,16h-3.4v-3.4h3.4V16z M26.2,16h-3.4v-3.4h3.4V16z M22.5,16h-3.4v-3.4h3.4V16z
				 M18.9,16h-3.4v-3.4h3.4V16z M15.2,16h-3.4v-3.4h3.4V16z M11.6,16H8.2v-3.4h3.4V16z M8,16H4.6v-3.4H8V16z M4.3,16H1v-3.4h3.4V16z
				 M0.7,16h-3.4v-3.4h3.4V16z M-3,16h-3.4v-3.4H-3V16z M-6.6,16H-10v-3.4h3.4V16z M-6.6,16.2v3.4H-10v-3.4H-6.6z M-6.6,19.9v3.4
				H-10v-3.4H-6.6z M-6.6,23.5v3.4H-10v-3.4H-6.6z M-6.6,27.2v3.4H-10v-3.4H-6.6z M-6.6,30.8v3.4H-10v-3.4H-6.6z M-6.6,34.5v3.4H-10
				v-3.4H-6.6z M-6.6,38.1v3.4H-10v-3.4H-6.6z M-6.6,41.8v3.4H-10v-3.4H-6.6z M-6.6,45.4v3.4H-10v-3.4H-6.6z M-6.6,49v3.4H-10V49
				H-6.6z M-6.6,52.7V56H-10v-3.4H-6.6z M-6.6,56.3v3.4H-10v-3.4H-6.6z M-6.6,60v3.4H-10V60H-6.6z M-6.6,63.6V67H-10v-3.4H-6.6z
				 M-6.6,67.3v3.4H-10v-3.4H-6.6z M-6.6,70.9v3.4H-10v-3.4H-6.6z M-6.6,74.6v3.4H-10v-3.4H-6.6z M-6.6,78.2v3.4H-10v-3.4H-6.6z
				 M-6.6,81.8v3.4H-10v-3.4H-6.6z M-6.6,85.5v3.4H-10v-3.4H-6.6z M-6.6,89.1v3.4H-10v-3.4H-6.6z M-6.6,92.8v3.4H-10v-3.4H-6.6z
				 M-6.6,96.4v3.4H-10v-3.4H-6.6z M-6.3,96.4H-3v3.4h-3.4V96.4z M-2.7,96.4h3.4v3.4h-3.4V96.4z M1,96.4h3.4v3.4H1V96.4z M4.6,96.4
				H8v3.4H4.6V96.4z M8.2,96.4h3.4v3.4H8.2V96.4z M11.9,96.4h3.4v3.4h-3.4V96.4z M15.5,96.4h3.4v3.4h-3.4V96.4z M19.2,96.4h3.4v3.4
				h-3.4V96.4z M22.8,96.4h3.4v3.4h-3.4V96.4z M26.5,96.4h3.4v3.4h-3.4V96.4z M30.1,96.4h3.4v3.4h-3.4V96.4z M33.7,96.4h3.4v3.4
				h-3.4V96.4z M37.4,96.4h3.4v3.4h-3.4V96.4z M41,96.4h3.4v3.4H41V96.4z M44.7,96.4H48v3.4h-3.4V96.4z M48.3,96.4h3.4v3.4h-3.4
				V96.4z M52,96.4h3.4v3.4H52V96.4z M55.6,96.4H59v3.4h-3.4V96.4z M59.3,96.4h3.4v3.4h-3.4V96.4z M62.9,96.4h3.4v3.4h-3.4V96.4z
				 M66.5,96.4h3.4v3.4h-3.4V96.4z M70.2,96.4h3.4v3.4h-3.4V96.4z M73.8,96.4h3.4v3.4h-3.4V96.4z M77.5,96.4h3.4v3.4h-3.4V96.4z
				 M81.1,96.4h3.4v3.4h-3.4V96.4z M84.8,96.4h3.4v3.4h-3.4V96.4z M88.4,96.4h3.4v3.4h-3.4V96.4z M92,96.4h3.4v3.4H92V96.4z
				 M95.7,96.4H99v3.4h-3.4V96.4z M99.3,96.4h3.4v3.4h-3.4V96.4z M103,96.4h3.4v3.4H103V96.4z M106.6,96.4h3.4v3.4h-3.4V96.4z
				 M106.6,96.1v-3.4h3.4v3.4H106.6z M106.6,92.5v-3.4h3.4v3.4H106.6z M106.6,88.8v-3.4h3.4v3.4H106.6z M106.6,85.2v-3.4h3.4v3.4
				H106.6z M106.6,81.5v-3.4h3.4v3.4H106.6z M106.6,77.9v-3.4h3.4v3.4H106.6z M106.6,74.3v-3.4h3.4v3.4H106.6z M106.6,70.6v-3.4h3.4
				v3.4H106.6z M106.6,67v-3.4h3.4V67H106.6z M106.6,63.3V60h3.4v3.4H106.6z M106.6,59.7v-3.4h3.4v3.4H106.6z M106.6,56v-3.4h3.4V56
				H106.6z M106.6,52.4V49h3.4v3.4H106.6z M106.6,48.8v-3.4h3.4v3.4H106.6z M106.6,45.1v-3.4h3.4v3.4H106.6z M106.6,41.5v-3.4h3.4
				v3.4H106.6z M106.6,37.8v-3.4h3.4v3.4H106.6z M106.6,34.2v-3.4h3.4v3.4H106.6z M106.6,30.5v-3.4h3.4v3.4H106.6z M106.6,26.9v-3.4
				h3.4v3.4H106.6z M106.6,23.2v-3.4h3.4v3.4H106.6z M106.6,19.6v-3.4h3.4v3.4H106.6z M106.6,16v-3.4h3.4V16H106.6z M106.6,12.3V9
				h3.4v3.4H106.6z M106.3,12.3H103V9h3.4V12.3z M102.7,12.3h-3.4V9h3.4V12.3z M99,12.3h-3.4V9H99V12.3z M95.4,12.3H92V9h3.4V12.3z
				 M91.8,12.3h-3.4V9h3.4V12.3z M88.1,12.3h-3.4V9h3.4V12.3z M84.5,12.3h-3.4V9h3.4V12.3z M80.8,12.3h-3.4V9h3.4V12.3z M77.2,12.3
				h-3.4V9h3.4V12.3z M73.5,12.3h-3.4V9h3.4V12.3z M69.9,12.3h-3.4V9h3.4V12.3z M66.3,12.3h-3.4V9h3.4V12.3z M62.6,12.3h-3.4V9h3.4
				V12.3z M59,12.3h-3.4V9H59V12.3z M55.3,12.3H52V9h3.4V12.3z M51.7,12.3h-3.4V9h3.4V12.3z M48,12.3h-3.4V9H48V12.3z M44.4,12.3H41
				V9h3.4V12.3z M40.7,12.3h-3.4V9h3.4V12.3z M37.1,12.3h-3.4V9h3.4V12.3z M33.5,12.3h-3.4V9h3.4V12.3z M29.8,12.3h-3.4V9h3.4V12.3z
				 M26.2,12.3h-3.4V9h3.4V12.3z M22.5,12.3h-3.4V9h3.4V12.3z M18.9,12.3h-3.4V9h3.4V12.3z M15.2,12.3h-3.4V9h3.4V12.3z M11.6,12.3
				H8.2V9h3.4V12.3z M8,12.3H4.6V9H8V12.3z M4.3,12.3H1V9h3.4V12.3z M0.7,12.3h-3.4V9h3.4V12.3z M-3,12.3h-3.4V9H-3V12.3z
				 M-6.6,12.3H-10V9h3.4V12.3z M-10.3,12.3h-3.4V9h3.4V12.3z M-10.3,12.6V16h-3.4v-3.4H-10.3z M-10.3,16.2v3.4h-3.4v-3.4H-10.3z
				 M-10.3,19.9v3.4h-3.4v-3.4H-10.3z M-10.3,23.5v3.4h-3.4v-3.4H-10.3z M-10.3,27.2v3.4h-3.4v-3.4H-10.3z M-10.3,30.8v3.4h-3.4
				v-3.4H-10.3z M-10.3,34.5v3.4h-3.4v-3.4H-10.3z M-10.3,38.1v3.4h-3.4v-3.4H-10.3z M-10.3,41.8v3.4h-3.4v-3.4H-10.3z M-10.3,45.4
				v3.4h-3.4v-3.4H-10.3z M-10.3,49v3.4h-3.4V49H-10.3z M-10.3,52.7V56h-3.4v-3.4H-10.3z M-10.3,56.3v3.4h-3.4v-3.4H-10.3z
				 M-10.3,60v3.4h-3.4V60H-10.3z M-10.3,63.6V67h-3.4v-3.4H-10.3z M-10.3,67.3v3.4h-3.4v-3.4H-10.3z M-10.3,70.9v3.4h-3.4v-3.4
				H-10.3z M-10.3,74.6v3.4h-3.4v-3.4H-10.3z M-10.3,78.2v3.4h-3.4v-3.4H-10.3z M-10.3,81.8v3.4h-3.4v-3.4H-10.3z M-10.3,85.5v3.4
				h-3.4v-3.4H-10.3z M-10.3,89.1v3.4h-3.4v-3.4H-10.3z M-10.3,92.8v3.4h-3.4v-3.4H-10.3z M-10.3,96.4v3.4h-3.4v-3.4H-10.3z
				 M-10.3,100.1v3.4h-3.4v-3.4H-10.3z M-10,100.1h3.4v3.4H-10V100.1z M-6.3,100.1H-3v3.4h-3.4V100.1z M-2.7,100.1h3.4v3.4h-3.4
				V100.1z M1,100.1h3.4v3.4H1V100.1z M4.6,100.1H8v3.4H4.6V100.1z M8.2,100.1h3.4v3.4H8.2V100.1z M11.9,100.1h3.4v3.4h-3.4V100.1z
				 M15.5,100.1h3.4v3.4h-3.4V100.1z M19.2,100.1h3.4v3.4h-3.4V100.1z M22.8,100.1h3.4v3.4h-3.4V100.1z M26.5,100.1h3.4v3.4h-3.4
				V100.1z M30.1,100.1h3.4v3.4h-3.4V100.1z M33.7,100.1h3.4v3.4h-3.4V100.1z M37.4,100.1h3.4v3.4h-3.4V100.1z M41,100.1h3.4v3.4H41
				V100.1z M44.7,100.1H48v3.4h-3.4V100.1z M48.3,100.1h3.4v3.4h-3.4V100.1z M52,100.1h3.4v3.4H52V100.1z M55.6,100.1H59v3.4h-3.4
				V100.1z M59.3,100.1h3.4v3.4h-3.4V100.1z M62.9,100.1h3.4v3.4h-3.4V100.1z M66.5,100.1h3.4v3.4h-3.4V100.1z M70.2,100.1h3.4v3.4
				h-3.4V100.1z M73.8,100.1h3.4v3.4h-3.4V100.1z M77.5,100.1h3.4v3.4h-3.4V100.1z M81.1,100.1h3.4v3.4h-3.4V100.1z M84.8,100.1h3.4
				v3.4h-3.4V100.1z M88.4,100.1h3.4v3.4h-3.4V100.1z M92,100.1h3.4v3.4H92V100.1z M95.7,100.1H99v3.4h-3.4V100.1z M99.3,100.1h3.4
				v3.4h-3.4V100.1z M103,100.1h3.4v3.4H103V100.1z M106.6,100.1h3.4v3.4h-3.4V100.1z M110.3,100.1h3.4v3.4h-3.4V100.1z M110.3,99.8
				v-3.4h3.4v3.4H110.3z M110.3,96.1v-3.4h3.4v3.4H110.3z M110.3,92.5v-3.4h3.4v3.4H110.3z M110.3,88.8v-3.4h3.4v3.4H110.3z
				 M110.3,85.2v-3.4h3.4v3.4H110.3z M110.3,81.5v-3.4h3.4v3.4H110.3z M110.3,77.9v-3.4h3.4v3.4H110.3z M110.3,74.3v-3.4h3.4v3.4
				H110.3z M110.3,70.6v-3.4h3.4v3.4H110.3z M110.3,67v-3.4h3.4V67H110.3z M110.3,63.3V60h3.4v3.4H110.3z M110.3,59.7v-3.4h3.4v3.4
				H110.3z M110.3,56v-3.4h3.4V56H110.3z M110.3,52.4V49h3.4v3.4H110.3z M110.3,48.8v-3.4h3.4v3.4H110.3z M110.3,45.1v-3.4h3.4v3.4
				H110.3z M110.3,41.5v-3.4h3.4v3.4H110.3z M110.3,37.8v-3.4h3.4v3.4H110.3z M110.3,34.2v-3.4h3.4v3.4H110.3z M110.3,30.5v-3.4h3.4
				v3.4H110.3z M110.3,26.9v-3.4h3.4v3.4H110.3z M110.3,23.2v-3.4h3.4v3.4H110.3z M110.3,19.6v-3.4h3.4v3.4H110.3z M110.3,16v-3.4
				h3.4V16H110.3z M110.3,12.3V9h3.4v3.4H110.3z M110,5.3v3.4h-3.4V5.3H110z M106.3,5.3v3.4H103V5.3H106.3z M102.7,5.3v3.4h-3.4V5.3
				H102.7z M99,5.3v3.4h-3.4V5.3H99z M95.4,5.3v3.4H92V5.3H95.4z M91.8,5.3v3.4h-3.4V5.3H91.8z M88.1,5.3v3.4h-3.4V5.3H88.1z
				 M84.5,5.3v3.4h-3.4V5.3H84.5z M80.8,5.3v3.4h-3.4V5.3H80.8z M77.2,5.3v3.4h-3.4V5.3H77.2z M73.5,5.3v3.4h-3.4V5.3H73.5z
				 M69.9,5.3v3.4h-3.4V5.3H69.9z M66.3,5.3v3.4h-3.4V5.3H66.3z M62.6,5.3v3.4h-3.4V5.3H62.6z M59,5.3v3.4h-3.4V5.3H59z M55.3,5.3
				v3.4H52V5.3H55.3z M51.7,5.3v3.4h-3.4V5.3H51.7z M48,5.3v3.4h-3.4V5.3H48z M44.4,5.3v3.4H41V5.3H44.4z M40.7,5.3v3.4h-3.4V5.3
				H40.7z M37.1,5.3v3.4h-3.4V5.3H37.1z M33.5,5.3v3.4h-3.4V5.3H33.5z M29.8,5.3v3.4h-3.4V5.3H29.8z M26.2,5.3v3.4h-3.4V5.3H26.2z
				 M22.5,5.3v3.4h-3.4V5.3H22.5z M18.9,5.3v3.4h-3.4V5.3H18.9z M15.2,5.3v3.4h-3.4V5.3H15.2z M11.6,5.3v3.4H8.2V5.3H11.6z M8,5.3
				v3.4H4.6V5.3H8z M4.3,5.3v3.4H1V5.3H4.3z M0.7,5.3v3.4h-3.4V5.3H0.7z M-3,5.3v3.4h-3.4V5.3H-3z M-6.6,5.3v3.4H-10V5.3H-6.6z
				 M-10.3,5.3v3.4h-3.4V5.3H-10.3z"/>
		</g>
	</g>
</g>
<g>
	<g id="XMLID_7_">
		<g>
			<circle class="st2" cx="75.8" cy="70.1" r="11.9"/>
		</g>
		<g>
			<path class="st0" d="M75.8,83.6c-7.4,0-13.5-6-13.5-13.5s6-13.5,13.5-13.5s13.5,6,13.5,13.5S83.2,83.6,75.8,83.6z M75.8,59.8
				c-5.7,0-10.3,4.6-10.3,10.3c0,5.7,4.6,10.3,10.3,10.3c5.7,0,10.3-4.6,10.3-10.3C86.1,64.5,81.5,59.8,75.8,59.8z"/>
		</g>
	</g>
	<g>
		<g>
			<path class="st0" d="M72.2,76.7c-0.8,0-1.5-0.7-1.5-1.5v-4.1c0-2.4,2-4.4,4.4-4.4H80c0.8,0,1.5,0.7,1.5,1.5s-0.7,1.5-1.5,1.5
				h-4.9c-0.8,0-1.4,0.6-1.4,1.4v4.1C73.7,76,73.1,76.7,72.2,76.7z"/>
		</g>
		<g>
			<path class="st0" d="M78.3,73.1c-0.4,0-0.8-0.1-1.1-0.4c-0.6-0.6-0.6-1.5,0-2.1l2.3-2.3l-2.3-2.3c-0.6-0.6-0.6-1.5,0-2.1
				s1.5-0.6,2.1,0l4.5,4.5l-4.5,4.5C79,72.9,78.7,73.1,78.3,73.1z"/>
		</g>
	</g>
</g>
<g>
	<g>
		<rect x="42" y="37.7" class="st2" width="4" height="21"/>
	</g>
	<g>
		<rect x="48.3" y="44.7" class="st2" width="4" height="14"/>
	</g>
	<g>
		<rect x="54.6" y="39.6" class="st7" width="4" height="19.1"/>
	</g>
	<g>
		<rect x="60.8" y="48.5" class="st2" width="4" height="10.2"/>
	</g>
	<g>
		<rect x="35.8" y="51.7" class="st7" width="4" height="7"/>
	</g>
</g>
</svg>
