<?xml version="1.0" encoding="UTF-8"?>
<svg width="60px" height="61px" viewBox="0 0 60 61" version="1.1" xmlns="http://www.w3.org/2000/svg" xmlns:xlink="http://www.w3.org/1999/xlink">
    <title>编组 4</title>
    <g id="web" stroke="none" stroke-width="1" fill="none" fill-rule="evenodd">
        <g id="1web-首页" transform="translate(-1854.000000, -289.000000)">
            <g id="编组-4" transform="translate(1854.000000, 289.000000)">
                <rect id="矩形" fill="#21243B" x="0" y="0.603960396" width="60" height="60.3960396" rx="30"></rect>
                <g id="加速">
                    <ellipse id="椭圆形" fill="#2A2B43" cx="30" cy="30.1980198" rx="30" ry="30.1980198"></ellipse>
                    <g transform="translate(30.000000, 30.198020) rotate(-45.000000) translate(-30.000000, -30.198020) translate(15.000000, 15.099010)" fill="#00D2FA" fill-rule="nonzero" id="形状">
                        <path d="M29.9949013,2.45506593 C29.9086114,5.24221218 29.3076221,7.92092465 28.3033957,10.5164154 C27.1016955,13.621911 25.3443674,16.3545811 22.8809631,18.6128766 C22.6810025,18.7956991 22.6187742,18.99235 22.644772,19.2506828 C22.7299558,20.0862451 22.7982686,20.9229149 22.8840056,21.7582019 C23.0847958,23.7064667 22.4027744,25.3006878 20.8315741,26.43166 C19.1475353,27.645313 17.3946335,28.7652075 15.6563839,29.9016817 C14.5608875,30.6185903 13.2142665,29.9677854 13.0922968,28.6683891 C12.9520753,27.1762132 12.8420005,25.6804429 12.7382874,24.1852135 C12.6862922,23.4370499 12.7064818,23.4304148 11.9824203,23.3349919 C10.0583181,23.0816401 8.55268102,22.1686326 7.51883998,20.5107846 C6.98699531,19.6577976 6.72314532,18.7146433 6.63077111,17.7239168 C6.60311405,17.4265881 6.48335898,17.3502495 6.20319389,17.335315 C4.64665534,17.2490205 3.09039204,17.1571943 1.53605867,17.0396458 C0.243366902,16.9420113 -0.41238059,15.5790002 0.280429249,14.4408552 C0.767469452,13.6409712 1.28548776,12.8601731 1.78801541,12.0699682 C2.32954175,11.2189176 2.86719222,10.3659274 3.41010119,9.5159843 C4.40326646,7.96046947 5.83534849,7.12020531 7.66791831,7.10554605 C8.71750284,7.09724848 9.76957741,7.28228369 10.818333,7.39513029 C11.0171872,7.4167039 11.1579624,7.38932202 11.295141,7.23609387 C13.7306205,4.51366926 16.7446822,2.67632519 20.1570106,1.44689906 L20.1570127,1.44689832 C22.0776616,0.753703756 24.0756997,0.29747083 26.1068635,0.0883137949 C27.13294,-0.0176183047 28.1670371,-0.0563402185 29.1925599,0.133673669 C29.7512316,0.237116253 29.7797197,0.260073052 29.8657312,0.805775526 C29.9517447,1.351478 30.0195044,1.89939217 29.9948897,2.45505206 L29.9949013,2.45506593 Z M24.118055,9.32514175 C24.1404572,7.48806654 22.6190431,5.90821988 20.8105446,5.87806916 C18.9318005,5.84709166 17.3053043,7.21259071 17.2607527,9.34533825 C17.2231392,11.1237796 18.8341613,12.7346059 20.632146,12.7473448 L20.632146,12.7473448 C22.5377011,12.7669614 24.0983716,11.2380259 24.117959,9.33237536 C24.1179837,9.32997087 24.1180059,9.32756635 24.1180257,9.32516181 L24.118055,9.32514175 Z M3.92064429,19.8135283 C4.3814112,19.8198898 4.63640846,20.022903 4.80179678,20.4936512 C5.44980215,22.3381969 6.62771586,23.7377025 8.33580996,24.686138 L8.33580971,24.6861378 C8.71460738,24.8938469 9.11110727,25.0674869 9.5206366,25.2050119 C10.2585262,25.4564277 10.4269582,26.1755483 9.87934763,26.7287181 C9.06844397,27.5476847 8.24924128,28.357526 7.43833442,29.1759421 C7.17033749,29.4467186 6.87551484,29.5742229 6.49854789,29.4345489 C6.11522145,29.2921079 5.93074826,29.008886 5.91138814,28.6119847 C5.89921905,28.3602924 5.90558017,28.1080483 5.89949561,27.8560785 C5.88843279,27.3933514 5.88400765,27.3894785 5.45808882,27.5305372 C4.54706561,27.8325677 3.6371498,28.1368099 2.72640184,28.4391173 C2.45785185,28.5276244 2.18874817,28.5644102 1.92545188,28.4158842 C1.53991386,28.1976586 1.39498984,27.8082287 1.55014601,27.3277984 C1.85299083,26.3918361 2.17021699,25.4608509 2.47970039,24.5273756 C2.61383728,24.122178 2.60553986,24.1133281 2.16828194,24.1066898 C1.90415703,24.102541 1.63975624,24.107243 1.37645995,24.0942435 C0.992855058,24.0762654 0.719329819,23.8901237 0.576895828,23.5264144 C0.43833386,23.172662 0.526836695,22.8639947 0.785983152,22.603175 C1.63201283,21.7523997 2.48163672,20.9046683 3.33098537,20.0569337 C3.49997015,19.888217 3.70076069,19.792242 3.92063514,19.8135389 L3.92064429,19.8135283 Z"></path>
                    </g>
                </g>
            </g>
        </g>
    </g>
</svg>